HIERARCHY
ROOT root
{
	OFFSET	0.00	0.00	0.00
	CHANNELS 6 Xposition Yposition Zposition Zrotation Xrotation Yrotation
	JOINT back
	{
		OFFSET	 0.496092	-0.006840	-0.000859
		CHANNELS 3 Zrotation Xrotation Yrotation
		JOINT chest
		{
			OFFSET	 0.264817	 0.004177	 0.000000
			CHANNELS 3 Zrotation Xrotation Yrotation
			JOINT l_clavicle
			{
				OFFSET	 0.114550	 0.000716	-0.065320
				CHANNELS 3 Zrotation Xrotation Yrotation
				JOINT l_end_clavicle
				{
					OFFSET	 0.162817	-0.003802	 0.000068
					CHANNELS 3 Zrotation Xrotation Yrotation
					JOINT l_shoulder
					{
						OFFSET	 0.048218	-0.009968	 0.046888
						CHANNELS 3 Zrotation Xrotation Yrotation
						JOINT l_forearm
						{
							OFFSET	 0.308788	 0.084636	-0.003166
							CHANNELS 3 Zrotation Xrotation Yrotation
							JOINT l_end_wrist
							{
								OFFSET	 0.317021	-0.006522	 0.006333
								CHANNELS 3 Zrotation Xrotation Yrotation
								JOINT l_index1
								{
									OFFSET	 0.152748	-0.021000	-0.014320
									CHANNELS 3 Zrotation Xrotation Yrotation
									JOINT l_index2
									{
										OFFSET	 0.039283	 0.000000	 0.000000
										CHANNELS 3 Zrotation Xrotation Yrotation
										JOINT l_index3
										{
											OFFSET	 0.038151	 0.000000	 0.000000
											CHANNELS 3 Zrotation Xrotation Yrotation
											End Site
											{
												OFFSET	 0.038151	 0.000000	 0.000000
											}
										}
									}
								}
								JOINT l_middle1
								{
									OFFSET	 0.151723	 0.016194	-0.014667
									CHANNELS 3 Zrotation Xrotation Yrotation
									JOINT l_middle_2
									{
										OFFSET	 0.038269	 0.000000	 0.000000
										CHANNELS 3 Zrotation Xrotation Yrotation
										JOINT l_middle_3
										{
											OFFSET	 0.039743	 0.000000	 0.000000
											CHANNELS 3 Zrotation Xrotation Yrotation
											End Site
											{
												OFFSET	 0.039743	 0.000000	 0.000000
											}
										}
									}
								}
								JOINT l_pinky1
								{
									OFFSET	 0.117088	 0.077397	-0.013819
									CHANNELS 3 Zrotation Xrotation Yrotation
									JOINT l_pinky2
									{
										OFFSET	 0.028938	 0.000000	 0.000000
										CHANNELS 3 Zrotation Xrotation Yrotation
										JOINT l_pinky3
										{
											OFFSET	 0.027081	 0.000000	 0.000000
											CHANNELS 3 Zrotation Xrotation Yrotation
											End Site
											{
												OFFSET	 0.027081	 0.000000	 0.000000
											}
										}
									}
								}
								JOINT l_ring1
								{
									OFFSET	 0.137788	 0.047650	-0.014135
									CHANNELS 3 Zrotation Xrotation Yrotation
									JOINT l_ring2
									{
										OFFSET	 0.030749	 0.000000	 0.000000
										CHANNELS 3 Zrotation Xrotation Yrotation
										JOINT l_ring3
										{
											OFFSET	 0.032711	 0.000000	 0.000000
											CHANNELS 3 Zrotation Xrotation Yrotation
											End Site
											{
												OFFSET	 0.032711	 0.000000	 0.000000
											}
										}
									}
								}
								JOINT l_thumb1
								{
									OFFSET	 0.054053	-0.036728	-0.011261
									CHANNELS 3 Zrotation Xrotation Yrotation
									JOINT l_thumb_2
									{
										OFFSET	 0.051141	-0.005593	-0.001180
										CHANNELS 3 Zrotation Xrotation Yrotation
										JOINT l_thumb_3
										{
											OFFSET	 0.046421	-0.001905	 0.000191
											CHANNELS 3 Zrotation Xrotation Yrotation
											End Site
											{
												OFFSET	 0.046421	-0.001905	 0.000191
											}
										}
									}
								}
							}
						}
					}
				}
			}
			JOINT neck
			{
				OFFSET	 0.143918	 0.000470	 0.000000
				CHANNELS 3 Zrotation Xrotation Yrotation
				JOINT head
				{
					OFFSET	 0.001794	 0.038939	 0.061196
					CHANNELS 3 Zrotation Xrotation Yrotation
					End Site
					{
						OFFSET	 0.001794	 0.038939	 0.061196
					}
				}
			}
			JOINT r_clavicle
			{
				OFFSET	 0.114552	 0.000716	 0.065320
				CHANNELS 3 Zrotation Xrotation Yrotation
				JOINT r_end_clavicle
				{
					OFFSET	-0.162817	 0.003801	-0.000067
					CHANNELS 3 Zrotation Xrotation Yrotation
					JOINT r_shoulder
					{
						OFFSET	-0.018257	 0.050581	-0.024760
						CHANNELS 3 Zrotation Xrotation Yrotation
						JOINT r_forearm
						{
							OFFSET	-0.236679	 0.140435	 0.230714
							CHANNELS 3 Zrotation Xrotation Yrotation
							JOINT r_end_wrist
							{
								OFFSET	-0.317022	 0.006522	-0.006331
								CHANNELS 3 Zrotation Xrotation Yrotation
								JOINT r_index1
								{
									OFFSET	-0.152748	 0.021000	 0.014322
									CHANNELS 3 Zrotation Xrotation Yrotation
									JOINT r_index2
									{
										OFFSET	-0.039280	 0.000000	-0.000001
										CHANNELS 3 Zrotation Xrotation Yrotation
										JOINT r_index3
										{
											OFFSET	-0.038152	 0.000000	-0.000001
											CHANNELS 3 Zrotation Xrotation Yrotation
											End Site
											{
												OFFSET	-0.038152	 0.000000	-0.000001
											}
										}
									}
								}
								JOINT r_middle1
								{
									OFFSET	-0.151722	-0.016194	 0.014664
									CHANNELS 3 Zrotation Xrotation Yrotation
									JOINT r_middle_2
									{
										OFFSET	-0.038270	 0.000000	 0.000003
										CHANNELS 3 Zrotation Xrotation Yrotation
										JOINT r_middle_3
										{
											OFFSET	-0.039744	 0.000000	 0.000000
											CHANNELS 3 Zrotation Xrotation Yrotation
											End Site
											{
												OFFSET	-0.039744	 0.000000	 0.000000
											}
										}
									}
								}
								JOINT r_pinky1
								{
									OFFSET	-0.117090	-0.077397	 0.013818
									CHANNELS 3 Zrotation Xrotation Yrotation
									JOINT r_pinky2
									{
										OFFSET	-0.028938	 0.000000	 0.000000
										CHANNELS 3 Zrotation Xrotation Yrotation
										JOINT r_pinky3
										{
											OFFSET	-0.027078	-0.000001	 0.000000
											CHANNELS 3 Zrotation Xrotation Yrotation
											End Site
											{
												OFFSET	-0.027078	-0.000001	 0.000000
											}
										}
									}
								}
								JOINT r_ring1
								{
									OFFSET	-0.137790	-0.047650	 0.014136
									CHANNELS 3 Zrotation Xrotation Yrotation
									JOINT r_ring2
									{
										OFFSET	-0.030748	 0.000000	-0.000001
										CHANNELS 3 Zrotation Xrotation Yrotation
										JOINT r_ring3
										{
											OFFSET	-0.032707	-0.000001	 0.000003
											CHANNELS 3 Zrotation Xrotation Yrotation
											End Site
											{
												OFFSET	-0.032707	-0.000001	 0.000003
											}
										}
									}
								}
								JOINT r_thumb1
								{
									OFFSET	-0.054054	 0.036728	 0.011262
									CHANNELS 3 Zrotation Xrotation Yrotation
									JOINT r_thumb_2
									{
										OFFSET	-0.051140	 0.005594	 0.001177
										CHANNELS 3 Zrotation Xrotation Yrotation
										JOINT r_thumb_3
										{
											OFFSET	-0.046419	 0.001906	-0.000190
											CHANNELS 3 Zrotation Xrotation Yrotation
											End Site
											{
												OFFSET	-0.046419	 0.001906	-0.000190
											}
										}
									}
								}
							}
						}
					}
				}
			}
		}
	}
	JOINT Pelvis
	{
		OFFSET	 0.153515	-0.004473	-0.002611
		CHANNELS 3 Zrotation Xrotation Yrotation
		JOINT l_thigh
		{
			OFFSET	 0.153678	-0.126876	 0.006858
			CHANNELS 3 Zrotation Xrotation Yrotation
			End Site
			{
				OFFSET	 0.153678	-0.126876	 0.006858
			}
		}
		JOINT r_thigh
		{
			OFFSET	 0.145748	 0.136132	 0.006403
			CHANNELS 3 Zrotation Xrotation Yrotation
			End Site
			{
				OFFSET	 0.145748	 0.136132	 0.006403
			}
		}
	}
}
MOTION
Frames:    4
Frame Time: 0.01666667
-0.020053	-0.121284	-0.030337	 164.750100	-1.430475	-78.516710	-18.160490	 3.356493	-5.927549	-15.338520	 5.183978	-5.520564	 0.703607	-3.504673	 102.121100	-0.813313	 0.122417	-8.559153	-3.202007	-6.599998	 45.981050	-127.471600	-1.418199	-3.293590	 11.326070	-6.213579	-22.417820	-13.811710	-8.095515	 80.750170	 2.456125	-1.183193	 95.504440	 1.049617	 1.819991	-12.131110	-4.103735	-17.334870	 121.765900	-0.335323	 3.483268	-168.936800	 0.166774	 7.217768	-11.730900	 3.476910	-13.900900	 58.164030	-6.023105	 19.824210	 67.417040	-4.717928	 19.575310	-20.517140	 20.057730	-4.327981	 158.354700	-3.565709	 10.193710	 125.849600	-5.484219	 9.422247	 114.632600	-49.416200	-11.683230	-5.315000	 15.543210	-0.539337	 0.135107	-1.947106	-0.291773	 3.307005	 2.787847	-18.076380	 90.991660	-102.537000	 30.868350	-74.658820	 179.794600	 2.838137	 96.219960	-0.813313	 0.122417	-8.559153	-49.600120	-37.359280	-31.540290	-27.682780	-24.743870	-9.900966	-4.612103	-3.750661	-43.481560	-5.640663	-2.072565	 10.189860	 2.508579	-1.127045	-1.293021	 3.299518	-1.013811	-87.234250	 4.665347	-10.923800	-170.887300	-0.135466	 3.283006	 78.743520	 2.111871	 0.772092	-123.627200	-18.459960	 44.034120	-74.817010	-8.061782	 19.914980	-72.595130	-4.716576	 19.574120	-20.517600	-34.272270	-42.063820	 51.653000	-3.470544	 9.829762	 82.436200	-0.519671	 9.367647	-86.481220	 61.014760	 21.611410	 5.836494	 155.426400	 0.259517	 0.630653	-95.842130	 0.466642	 3.247618	 0.000000	 90.000000	 0.000000	 161.939600	 15.731070	 150.955300	-173.740800	-8.229889	-27.957670
-0.019932	-0.122006	-0.031338	 164.931500	-1.325657	-78.485210	-18.048330	 3.286029	-5.953638	-15.254740	 5.013261	-5.538750	 0.681950	-3.392207	 102.039900	-0.813313	 0.122417	-8.559153	-3.202399	-6.744678	 45.922350	-127.825200	-1.415989	-3.325324	 11.806270	-6.347457	-22.376320	-13.806300	-8.085345	 80.728420	 2.456122	-1.183165	 95.472710	 1.050841	 1.819687	-12.155470	-4.127537	-17.299860	 121.583200	-0.333929	 3.483534	-169.413700	 0.164849	 7.218363	-11.702490	 3.563566	-13.805520	 58.161160	-6.023105	 19.824210	 67.417040	-4.717928	 19.575310	-20.517140	 20.019920	-4.361804	 158.036200	-3.562341	 10.189070	 125.205400	-5.488089	 9.444704	 114.109100	-49.416200	-11.683230	-5.315000	 15.543210	-0.539337	 0.135107	-1.947106	-0.291773	 3.307005	 2.778379	-17.876000	 90.992370	-102.468200	 30.380230	-73.856090	 179.807000	 2.804394	 96.022310	-0.813313	 0.122417	-8.559153	-50.665340	-37.071210	-32.669260	-25.634630	-25.527880	-9.208976	 1.576570	-6.250116	-41.596740	-5.645987	-2.074852	 10.189650	 2.508579	-1.127046	-1.292997	 3.299518	-1.013811	-87.234250	 4.684134	-11.117530	-171.372600	-0.135466	 3.283006	 78.743520	 2.051348	 0.699579	-124.956100	-16.873580	 44.204270	-76.583890	-8.067357	 19.932390	-73.615070	-4.716576	 19.574120	-20.517600	-33.967800	-41.906600	 51.853740	-3.471432	 9.823643	 81.740910	-0.530355	 9.317355	-87.662560	 60.584820	 21.607080	 5.991826	 151.381100	 0.230983	 0.651476	-98.303430	 0.482800	 3.263080	 0.000000	 90.000000	 0.000000	 161.990600	 15.721690	 150.387300	-173.724900	-8.314959	-28.365350
-0.019839	-0.122988	-0.032684	 165.167100	-1.188877	-78.447850	-17.894420	 3.202333	-5.983766	-15.139410	 4.810520	-5.559061	 0.656553	-3.260077	 101.931800	-0.813313	 0.122417	-8.559153	-3.219551	-6.945551	 45.793860	-128.237400	-1.415021	-3.362628	 12.332210	-6.497545	-22.276020	-13.799980	-8.073416	 80.701810	 2.456118	-1.183131	 95.433970	 1.052335	 1.819313	-12.185220	-4.156129	-17.257440	 121.362500	-0.332247	 3.483840	-169.988100	 0.162470	 7.219093	-11.667410	 3.675462	-13.694640	 58.176900	-6.023105	 19.824210	 67.417040	-4.717928	 19.575310	-20.517140	 19.973950	-4.401804	 157.651700	-3.558400	 10.183490	 124.438200	-5.492473	 9.471798	 113.478500	-49.416200	-11.683230	-5.315000	 15.543210	-0.539337	 0.135107	-1.947106	-0.291773	 3.307005	 2.765719	-17.594450	 90.991850	-102.390700	 29.619410	-72.819350	 179.823000	 2.747714	 95.805240	-0.813313	 0.122417	-8.559153	-52.287230	-36.261730	-34.450340	-20.786710	-26.541550	-7.444620	 7.953884	-8.811376	-40.510360	-5.652176	-2.077509	 10.189400	 2.508579	-1.127046	-1.292970	 3.299518	-1.013811	-87.234250	 4.703578	-11.348660	-171.957500	-0.135466	 3.283006	 78.743520	 1.976444	 0.614356	-126.552500	-14.953720	 44.366970	-78.730780	-8.073625	 19.953470	-74.842570	-4.716576	 19.574120	-20.517600	-33.603030	-41.716200	 52.093400	-3.472529	 9.816723	 80.953180	-0.544617	 9.257066	-89.085650	 60.066850	 21.600420	 6.178908	 146.543800	 0.195032	 0.673650	-101.268500	 0.501379	 3.282590	 0.000000	 90.000000	 0.000000	 162.058800	 15.713250	 149.655300	-173.695000	-8.418686	-28.963580
-0.019638	-0.123882	-0.033929	 165.381600	-1.063435	-78.424480	-17.758110	 3.132473	-5.999841	-15.038240	 4.642917	-5.567618	 0.635935	-3.152422	 101.833800	-0.813313	 0.122417	-8.559153	-3.241179	-7.125746	 45.646370	-128.569700	-1.415995	-3.393360	 12.743450	-6.616764	-22.162280	-13.794760	-8.063487	 80.678670	 2.456116	-1.183101	 95.400380	 1.053632	 1.818989	-12.211040	-4.180536	-17.220920	 121.173000	-0.330804	 3.484087	-170.480000	 0.160383	 7.219736	-11.636620	 3.775326	-13.601680	 58.200530	-6.023105	 19.824210	 67.417040	-4.717928	 19.575310	-20.517140	 19.934230	-4.435388	 157.321500	-3.555122	 10.178720	 123.788500	-5.495991	 9.495039	 112.938400	-49.416200	-11.683230	-5.315000	 15.543210	-0.539337	 0.135107	-1.947106	-0.291773	 3.307005	 2.754613	-17.362740	 90.990490	-102.324600	 28.913490	-71.943810	 179.832800	 2.714703	 95.666480	-0.813313	 0.122417	-8.559153	-53.379550	-35.206580	-36.029540	-18.622250	-27.093500	-6.490053	 11.402980	-10.679320	-40.538150	-5.657249	-2.079688	 10.189200	 2.508579	-1.127045	-1.292946	 3.299518	-1.013811	-87.234250	 4.717488	-11.544620	-172.458700	-0.135466	 3.283006	 78.743520	 1.910617	 0.543250	-127.915900	-13.304950	 44.469200	-80.582290	-8.078605	 19.971600	-75.892610	-4.716576	 19.574120	-20.517600	-33.292430	-41.552270	 52.296730	-3.473480	 9.811180	 80.320880	-0.558031	 9.205726	-90.304260	 59.623230	 21.593470	 6.339088	 142.431300	 0.163088	 0.690066	-103.808200	 0.516466	 3.300053	 0.000000	 90.000000	 0.000000	 162.114300	 15.693760	 149.116400	-173.649200	-8.503125	-29.534510
